# xmcd
#
# Track frame offsets:
#	150
#	28436
#	57657
#	87448
#	110358
#	129275
#	154670
#	189720
#	214064
#	240012
#
# Disc length: 3629 seconds
#
# Revision: 1
# Processed by: cddbd v1.5.2PL0 Copyright (c) Steve Scherf et al.
# Submitted via: EZCDAudioConverter 8.5.0.1
#
DISCID=850e2b0a
DTITLE=V/A - 80s Synthpop 1/3
DYEAR=2014
DGENRE=
TTITLE0=Duran Duran - Planet Earth [Night Version]
TTITLE1=Spandau Ballet - To Cut A Long Story Short [12" Version]
TTITLE2=New Order - Thieves Like Us [12" Version]
TTITLE3=Ultravox - All Stood Still [12" Version]
TTITLE4=Talking Heads - Slippery People [Live]
TTITLE5=Blancmange - Living On The Ceiling [Extended Version]
TTITLE6=Aztec Camera - Walk Out To Winter [Extended Version]
TTITLE7=Howard Jones - New Song [New Version]
TTITLE8=Laid Back - White Horse [U.S. Edit]
TTITLE9=Classix Nouveaux - Is It A Dream [Extended Version]
EXTD=
EXTT0=
EXTT1=
EXTT2=
EXTT3=
EXTT4=
EXTT5=
EXTT6=
EXTT7=
EXTT8=
EXTT9=
PLAYORDER=
